<svg width="25" height="24" viewBox="0 0 25 24" fill="none" xmlns="http://www.w3.org/2000/svg">
<mask id="mask0_847_81" style="mask-type:luminance" maskUnits="userSpaceOnUse" x="0" y="0" width="25" height="24">
<path d="M0.833496 0H24.8335V24H0.833496V0Z" fill="white"/>
</mask>
<g mask="url(#mask0_847_81)">
<path d="M9.0835 18C9.49771 18 9.85126 18.1464 10.1442 18.4393C10.437 18.7322 10.5835 19.0858 10.5835 19.5C10.5835 19.9142 10.437 20.2678 10.1442 20.5607C9.85126 20.8536 9.49771 21 9.0835 21C8.66928 21 8.31573 20.8536 8.02284 20.5607C7.72994 20.2678 7.5835 19.9142 7.5835 19.5C7.5835 19.0858 7.72994 18.7322 8.02284 18.4393C8.31573 18.1464 8.66928 18 9.0835 18Z" fill="#9CA3AF"/>
<path d="M19.5835 18C19.9977 18 20.3513 18.1464 20.6442 18.4393C20.937 18.7322 21.0835 19.0858 21.0835 19.5C21.0835 19.9142 20.937 20.2678 20.6442 20.5607C20.3513 20.8536 19.9977 21 19.5835 21C19.1693 21 18.8157 20.8536 18.5228 20.5607C18.2299 20.2678 18.0835 19.9142 18.0835 19.5C18.0835 19.0858 18.2299 18.7322 18.5228 18.4393C18.8157 18.1464 19.1693 18 19.5835 18Z" fill="#9CA3AF"/>
<path fill-rule="evenodd" clip-rule="evenodd" d="M2.3335 3.75C2.3335 4.16421 2.66929 4.5 3.0835 4.5H5.45426L7.59491 16.6303C7.60251 16.6734 7.61379 16.7155 7.62876 16.7566C7.64372 16.7977 7.66214 16.8372 7.68402 16.8751C7.70589 16.913 7.73089 16.9486 7.75901 16.9821C7.78713 17.0156 7.81794 17.0465 7.85145 17.0746C7.88495 17.1027 7.92065 17.1276 7.95853 17.1495C7.99641 17.1714 8.03591 17.1898 8.07701 17.2048C8.11811 17.2197 8.1602 17.231 8.20328 17.2386C8.24635 17.2462 8.28976 17.25 8.3335 17.25H20.3335C20.7477 17.25 21.0835 16.9142 21.0835 16.5C21.0835 16.0858 20.7477 15.75 20.3335 15.75H8.96274L6.82209 3.61966C6.81449 3.57659 6.8032 3.5345 6.78824 3.4934C6.77327 3.4523 6.75485 3.41281 6.73298 3.37493C6.7111 3.33705 6.68611 3.30136 6.65799 3.26786C6.62987 3.23436 6.59905 3.20355 6.56555 3.17543C6.53204 3.14732 6.49635 3.12233 6.45847 3.10046C6.42058 3.07859 6.38109 3.06018 6.33999 3.04522C6.29889 3.03026 6.2568 3.01899 6.21372 3.01139C6.17064 3.0038 6.12724 3 6.0835 3H3.0835C2.66929 3 2.3335 3.33579 2.3335 3.75Z" fill="#9CA3AF"/>
<path fill-rule="evenodd" clip-rule="evenodd" d="M19.7188 12.75H8.3335C7.91929 12.75 7.5835 13.0858 7.5835 13.5C7.5835 13.9142 7.91929 14.25 8.3335 14.25H20.026C20.2939 14.2502 20.5316 14.1653 20.7391 13.9953C20.9466 13.8253 21.0767 13.6088 21.1294 13.3458L22.4794 6.59568C22.5491 6.2475 22.4713 5.93611 22.2461 5.66152C22.0208 5.38693 21.7306 5.24975 21.3755 5.25H6.8335C6.41929 5.25 6.0835 5.58579 6.0835 6C6.0835 6.41421 6.41929 6.75 6.8335 6.75H20.9188L19.7188 12.75Z" fill="#9CA3AF"/>
</g>
</svg>
