<svg width="25" height="24" viewBox="0 0 25 24" fill="none" xmlns="http://www.w3.org/2000/svg">
<mask id="mask0_847_70" style="mask-type:luminance" maskUnits="userSpaceOnUse" x="0" y="0" width="25" height="24">
<path d="M0.666504 0H24.6665V24H0.666504V0Z" fill="white"/>
</mask>
<g mask="url(#mask0_847_70)">
<path d="M23.6436 8.50304L21.575 6.43444C21.229 6.09315 20.6796 6.0728 20.3094 6.38757C19.7376 6.87422 18.8884 6.84162 18.3556 6.31257C17.8269 5.77988 17.7943 4.93095 18.2806 4.35929C18.5954 3.98903 18.575 3.43962 18.2337 3.09366L16.1633 1.02272C15.799 0.659094 15.209 0.659094 14.8447 1.02272L11.547 4.31991C11.3434 4.52423 11.1899 4.77291 11.0984 5.04647C11.0623 5.15308 10.9786 5.23678 10.872 5.27288C10.5984 5.36433 10.3497 5.51805 10.1455 5.72194L1.68922 14.1782C1.3256 14.5425 1.3256 15.1325 1.68922 15.4968L3.76016 17.5654C4.10612 17.9067 4.65553 17.927 5.02579 17.6122C5.59641 17.1214 6.4489 17.1535 6.98111 17.6857C7.51333 18.2179 7.54534 19.0704 7.05453 19.641C6.73977 20.0113 6.76011 20.5607 7.10141 20.9066L9.17 22.9752C9.53433 23.3388 10.1243 23.3388 10.4886 22.9752L18.9448 14.519C19.1486 14.3149 19.3023 14.0663 19.3939 13.7929C19.4298 13.6859 19.5138 13.6019 19.6208 13.566C19.8942 13.4745 20.1427 13.321 20.3469 13.1174L23.6441 9.81975C24.0063 9.45552 24.0061 8.86701 23.6436 8.50304ZM12.9387 7.11319C12.7981 7.25388 12.6073 7.33292 12.4084 7.33292C12.2094 7.33292 12.0186 7.25388 11.878 7.11319L11.3384 6.57366C11.0529 6.27952 11.0564 5.81062 11.3464 5.52081C11.6363 5.231 12.1052 5.22768 12.3992 5.51335L12.9387 6.05241C13.0794 6.19307 13.1585 6.38386 13.1585 6.5828C13.1585 6.78174 13.0794 6.97253 12.9387 7.11319ZM15.0012 9.17569C14.7084 9.46835 14.2338 9.46835 13.9409 9.17569L13.4253 8.66007C13.2358 8.47058 13.1618 8.19439 13.2312 7.93554C13.3005 7.67669 13.5027 7.47451 13.7616 7.40515C14.0204 7.33579 14.2966 7.40979 14.4861 7.59928L15.0017 8.11491C15.1429 8.25556 15.2223 8.44662 15.2224 8.64591C15.2225 8.84519 15.1432 9.03632 15.0022 9.1771M17.0637 11.2382C16.9231 11.3789 16.7323 11.4579 16.5334 11.4579C16.3344 11.4579 16.1436 11.3789 16.003 11.2382L15.4873 10.7226C15.2018 10.4284 15.2053 9.95952 15.4953 9.66971C15.7852 9.37991 16.2541 9.37659 16.5481 9.66225L17.0637 10.1779C17.2053 10.3183 17.2851 10.5093 17.2856 10.7087C17.286 10.9081 17.207 11.0995 17.0661 11.2405M19.1464 13.326C19.0057 13.4667 18.815 13.5457 18.616 13.5457C18.4171 13.5457 18.2263 13.4667 18.0856 13.326L17.5494 12.7869C17.3558 12.5979 17.279 12.3194 17.3484 12.0579C17.4178 11.7964 17.6226 11.5926 17.8844 11.5245C18.1462 11.4563 18.4245 11.5345 18.6125 11.729L19.1492 12.2676C19.2898 12.4083 19.3688 12.5991 19.3687 12.798C19.3686 12.997 19.2895 13.1877 19.1487 13.3283" fill="#9CA3AF"/>
</g>
</svg>
