<svg width="25" height="24" viewBox="0 0 25 24" fill="none" xmlns="http://www.w3.org/2000/svg">
<mask id="mask0_847_61" style="mask-type:luminance" maskUnits="userSpaceOnUse" x="0" y="0" width="25" height="24">
<path d="M0.5 0H24.5V24H0.5V0Z" fill="white"/>
</mask>
<g mask="url(#mask0_847_61)">
<path d="M12.7614 4.7466C12.6164 4.60791 12.388 4.60791 12.243 4.7466L3.61328 12.9905C3.53922 13.0614 3.49738 13.1594 3.4975 13.2619L3.49609 20.9991C3.49609 21.8275 4.16767 22.4991 4.99609 22.4991H9.50078C9.91472 22.4991 10.2508 22.163 10.2508 21.7491V15.3741C10.2508 15.1671 10.4188 14.9991 10.6258 14.9991H14.3758C14.5828 14.9991 14.7508 15.1671 14.7508 15.3741V21.7491C14.7508 22.163 15.0869 22.4991 15.5008 22.4991H20.0036C20.8315 22.4991 21.5036 21.827 21.5036 20.9991V13.2619C21.5037 13.1594 21.4619 13.0614 21.3878 12.9905" fill="#9CA3AF"/>
<path d="M23.5114 11.4445L20.0052 8.09016V3C20.0052 2.58606 19.6691 2.25 19.2552 2.25H17.0052C16.5912 2.25 16.2552 2.58606 16.2552 3V4.5L13.5402 1.90406C13.2861 1.64719 12.9083 1.5 12.5 1.5C12.0931 1.5 11.7163 1.64719 11.4622 1.90453L1.49189 11.4436C1.20033 11.7248 1.16377 12.1875 1.42908 12.4922C1.56372 12.6476 1.75628 12.7409 1.9617 12.7503C2.16711 12.7597 2.36738 12.6844 2.51564 12.5419L12.2422 3.2475C12.3872 3.10881 12.6156 3.10881 12.7606 3.2475L22.4881 12.5419C22.7865 12.828 23.2601 12.8188 23.547 12.5212C23.8348 12.2231 23.8109 11.7309 23.5114 11.4445Z" fill="#9CA3AF"/>
</g>
</svg>
