<svg width="25" height="24" viewBox="0 0 25 24" fill="none" xmlns="http://www.w3.org/2000/svg">
<mask id="mask0_847_93" style="mask-type:luminance" maskUnits="userSpaceOnUse" x="0" y="0" width="25" height="24">
<path d="M0.5 0H24.5V24H0.5V0Z" fill="white"/>
</mask>
<g mask="url(#mask0_847_93)">
<mask id="mask1_847_93" style="mask-type:luminance" maskUnits="userSpaceOnUse" x="0" y="0" width="25" height="24">
<path d="M0.5 0H24.5V24H0.5V0Z" fill="white"/>
</mask>
<g mask="url(#mask1_847_93)">
<path d="M17.3728 6.80546C17.3214 7.49776 17.1574 8.16193 16.8805 8.79798C16.613 9.41244 16.2591 9.95889 15.8186 10.4373C15.3722 10.9223 14.8716 11.2998 14.3168 11.5698C13.7274 11.8566 13.1218 12 12.4998 12C11.8779 12 11.2721 11.8566 10.6826 11.5699C10.1275 11.3 9.6266 10.9226 9.17993 10.4377C8.73908 9.95907 8.385 9.41251 8.1177 8.798C7.84086 8.16156 7.67723 7.49705 7.62681 6.80446C7.57345 6.07079 7.65803 5.3755 7.88054 4.71861C8.09809 4.07636 8.43303 3.51127 8.88535 3.02333C9.33549 2.53775 9.86939 2.16348 10.487 1.90051C11.1142 1.6335 11.7851 1.5 12.4998 1.5C13.2146 1.5 13.8869 1.63629 14.5167 1.90887C15.1325 2.1754 15.6657 2.55341 16.1161 3.0429C16.567 3.53277 16.9012 4.09764 17.1188 4.73751C17.3417 5.39284 17.4264 6.08219 17.3728 6.80546ZM15.8769 6.6946C15.9154 6.17441 15.856 5.68304 15.6987 5.2205C15.5491 4.78048 15.3203 4.3932 15.0124 4.05866C14.7057 3.72539 14.3419 3.46766 13.9209 3.28546C13.4812 3.09515 13.0075 3 12.4998 3C11.9891 3 11.5141 3.09355 11.0746 3.28064C10.6534 3.45996 10.2904 3.71411 9.9854 4.04308C9.67831 4.37435 9.45026 4.75994 9.30125 5.19985C9.14364 5.66514 9.08417 6.16371 9.12285 6.69554C9.1609 7.21815 9.28435 7.71953 9.49321 8.19969C9.69325 8.65958 9.95658 9.06682 10.2832 9.4214C10.6017 9.76721 10.9535 10.0337 11.3386 10.221C11.7211 10.407 12.1082 10.5 12.4998 10.5C12.8914 10.5 13.2782 10.407 13.6604 10.221C14.0451 10.0338 14.3967 9.76726 14.7151 9.42139C15.0415 9.0668 15.3049 8.65944 15.5051 8.19932C15.7142 7.71903 15.8381 7.2175 15.8769 6.6946Z" fill="#4B1B8C"/>
<path d="M12.499 15C11.5361 15 10.5991 15.1297 9.68814 15.3892C8.76212 15.653 7.92654 16.0332 7.1814 16.5299C6.40918 17.0447 5.77732 17.657 5.28583 18.367C4.76421 19.1205 4.42027 19.9581 4.25401 20.88C4.24263 20.943 4.24658 20.9886 4.26584 21.0168C4.26298 21.0126 4.25743 21.0083 4.2492 21.0039L4.24904 21H20.749L20.7493 21.0038C20.7411 21.0082 20.7356 21.0125 20.7327 21.0167C20.752 20.9886 20.7559 20.943 20.7445 20.88C20.5782 19.9582 20.2342 19.1205 19.7125 18.367C19.2209 17.657 18.589 17.0447 17.8167 16.5299C17.0716 16.0332 16.236 15.653 15.3099 15.3892C14.399 15.1297 13.462 15 12.499 15ZM12.499 13.5C13.6016 13.5 14.6756 13.6489 15.7208 13.9466C16.7974 14.2533 17.7733 14.6983 18.6487 15.2818C19.5798 15.9024 20.3455 16.6462 20.9457 17.5132C21.5909 18.4449 22.0159 19.4784 22.2207 20.6137C22.3049 21.0806 22.2215 21.4974 21.9704 21.8641C21.8352 22.0617 21.6638 22.2158 21.4564 22.3267C21.2403 22.4422 21.0045 22.5 20.749 22.5H4.24904C3.99365 22.5 3.75789 22.4422 3.54174 22.3266C3.33445 22.2157 3.16321 22.0615 3.02802 21.864C2.77701 21.4973 2.69362 21.0805 2.77782 20.6138C2.98257 19.4785 3.40747 18.445 4.05252 17.5132C4.6527 16.6462 5.41833 15.9024 6.34943 15.2818C7.22477 14.6983 8.2007 14.2533 9.27722 13.9466C10.3225 13.6489 11.3964 13.5 12.499 13.5Z" fill="#4B1B8C"/>
</g>
</g>
</svg>
