<svg width="24" height="24" viewBox="0 0 24 24" fill="none" xmlns="http://www.w3.org/2000/svg">
<path d="M22.9771 8.50316L20.9085 6.43456C20.5625 6.09327 20.0131 6.07292 19.6429 6.38769C19.0711 6.87434 18.2219 6.84174 17.6891 6.31269C17.1604 5.78 17.1278 4.93107 17.6141 4.35941C17.9289 3.98915 17.9085 3.43974 17.5672 3.09378L15.4968 1.02284C15.1325 0.659216 14.5425 0.659216 14.1782 1.02284L10.8805 4.32003C10.6769 4.52435 10.5234 4.77303 10.4319 5.04659C10.3958 5.1532 10.3121 5.2369 10.2055 5.273C9.93186 5.36445 9.68315 5.51817 9.47897 5.72206L1.02272 14.1783C0.659094 14.5426 0.659094 15.1326 1.02272 15.4969L3.09366 17.5655C3.43962 17.9068 3.98903 17.9271 4.35929 17.6123C4.92991 17.1215 5.7824 17.1536 6.31461 17.6858C6.84683 18.218 6.87884 19.0705 6.38803 19.6411C6.07327 20.0114 6.09361 20.5608 6.43491 20.9067L8.5035 22.9753C8.86783 23.3389 9.45777 23.3389 9.8221 22.9753L18.2783 14.5191C18.4821 14.315 18.6358 14.0664 18.7274 13.793C18.7633 13.686 18.8473 13.602 18.9543 13.5661C19.2277 13.4746 19.4762 13.3211 19.6804 13.1175L22.9776 9.81987C23.3398 9.45564 23.3396 8.86713 22.9771 8.50316ZM12.2722 7.11331C12.1316 7.254 11.9408 7.33304 11.7419 7.33304C11.5429 7.33304 11.3521 7.254 11.2115 7.11331L10.6719 6.57378C10.3864 6.27964 10.3899 5.81074 10.6799 5.52093C10.9698 5.23112 11.4387 5.2278 11.7327 5.51347L12.2722 6.05253C12.4129 6.19319 12.492 6.38398 12.492 6.58292C12.492 6.78186 12.4129 6.97265 12.2722 7.11331ZM14.3347 9.17581C14.0419 9.46847 13.5673 9.46847 13.2744 9.17581L12.7588 8.66019C12.5693 8.4707 12.4953 8.19451 12.5647 7.93566C12.634 7.67681 12.8362 7.47463 13.0951 7.40527C13.3539 7.33591 13.6301 7.40991 13.8196 7.5994L14.3352 8.11503C14.4764 8.25568 14.5558 8.44674 14.5559 8.64603C14.556 8.84531 14.4767 9.03644 14.3357 9.17722M16.3972 11.2383C16.2566 11.379 16.0658 11.458 15.8669 11.458C15.6679 11.458 15.4771 11.379 15.3365 11.2383L14.8208 10.7227C14.5353 10.4285 14.5388 9.95964 14.8288 9.66983C15.1187 9.38003 15.5876 9.37671 15.8816 9.66237L16.3972 10.178C16.5388 10.3184 16.6186 10.5094 16.6191 10.7088C16.6195 10.9082 16.5405 11.0996 16.3996 11.2406M18.4799 13.3261C18.3392 13.4668 18.1485 13.5458 17.9495 13.5458C17.7506 13.5458 17.5598 13.4668 17.4191 13.3261L16.8829 12.787C16.6893 12.598 16.6125 12.3195 16.6819 12.058C16.7513 11.7965 16.9561 11.5927 17.2179 11.5246C17.4797 11.4564 17.758 11.5346 17.946 11.7291L18.4827 12.2677C18.6233 12.4084 18.7023 12.5992 18.7022 12.7981C18.7021 12.9971 18.623 13.1878 18.4822 13.3284" fill="#36106A"/>
</svg>
