<svg width="32" height="26" viewBox="0 0 32 26" fill="none" xmlns="http://www.w3.org/2000/svg">
<mask id="mask0_446_19120" style="mask-type:luminance" maskUnits="userSpaceOnUse" x="0" y="0" width="32" height="26">
<path d="M0 0H32V25.6H0V0Z" fill="white"/>
</mask>
<g mask="url(#mask0_446_19120)">
<path d="M31.5591 6.42055L21.8241 2.56055C20.8191 3.67255 18.5941 4.44855 15.9991 4.44855C13.4041 4.44855 11.1791 3.67255 10.1741 2.56055L0.439106 6.42055C0.0441053 6.58055 -0.115894 6.96455 0.0791053 7.28055L2.9391 11.8605C3.1391 12.1765 3.6191 12.3045 4.0141 12.1485L6.8441 11.0405C7.3741 10.8325 7.9941 11.1405 7.9941 11.6165V21.7605C7.9941 22.4685 8.7091 23.0405 9.5941 23.0405H22.3941C23.2791 23.0405 23.9941 22.4685 23.9941 21.7605V11.6125C23.9941 11.1405 24.6141 10.8285 25.1441 11.0365L27.9741 12.1445C28.3691 12.3045 28.8491 12.1765 29.0491 11.8565L31.9141 7.28055C32.1141 6.96455 31.9541 6.57655 31.5591 6.42055Z" fill="white"/>
</g>
</svg>
