<svg width="32" height="32" viewBox="0 0 32 32" fill="none" xmlns="http://www.w3.org/2000/svg">
<mask id="mask0_446_19188" style="mask-type:luminance" maskUnits="userSpaceOnUse" x="0" y="0" width="32" height="32">
<path d="M0 0H32V32H0V0Z" fill="white"/>
</mask>
<g mask="url(#mask0_446_19188)">
<mask id="mask1_446_19188" style="mask-type:luminance" maskUnits="userSpaceOnUse" x="0" y="0" width="32" height="32">
<path d="M0 0H32V32H0V0Z" fill="white"/>
</mask>
<g mask="url(#mask1_446_19188)">
<path d="M28.5441 15.4393L16.5441 3.43935C16.0641 2.95935 15.3974 2.66602 14.6641 2.66602H5.33073C3.86406 2.66602 2.66406 3.86602 2.66406 5.33269V14.666C2.66406 15.3993 2.9574 16.066 3.45073 16.5593L15.4508 28.5593C15.9308 29.0393 16.5974 29.3327 17.3308 29.3327C18.0641 29.3327 18.7308 29.0393 19.2108 28.546L28.5441 19.2127C29.0374 18.7327 29.3308 18.066 29.3308 17.3327C29.3308 16.5993 29.0241 15.9193 28.5441 15.4393ZM7.33073 9.33269C6.22406 9.33269 5.33073 8.43935 5.33073 7.33269C5.33073 6.22602 6.22406 5.33269 7.33073 5.33269C8.43739 5.33269 9.33073 6.22602 9.33073 7.33269C9.33073 8.43935 8.43739 9.33269 7.33073 9.33269Z" fill="white"/>
</g>
</g>
</svg>
