<svg width="32" height="26" viewBox="0 0 32 26" fill="none" xmlns="http://www.w3.org/2000/svg">
<mask id="mask0_446_19177" style="mask-type:luminance" maskUnits="userSpaceOnUse" x="0" y="0" width="32" height="26">
<path d="M0 0H32V25.6H0V0Z" fill="white"/>
</mask>
<g mask="url(#mask0_446_19177)">
<path d="M8 11.5191V14.0791H24V11.5191C24 10.1071 25.435 8.95914 27.2 8.95914H28.8C28.8 6.83914 26.65 5.11914 24 5.11914H8C5.35 5.11914 3.2 6.83914 3.2 8.95914H4.8C6.565 8.95914 8 10.1071 8 11.5191ZM28.8 10.2391H27.2C26.315 10.2391 25.6 10.8111 25.6 11.5191V15.3591H6.4V11.5191C6.4 10.8111 5.685 10.2391 4.8 10.2391H3.2C1.435 10.2391 0 11.3871 0 12.7991C0 13.7431 0.65 14.5591 1.6 15.0031V19.8391C1.6 20.1911 1.96 20.4791 2.4 20.4791H5.6C6.04 20.4791 6.4 20.1911 6.4 19.8391V19.1991H25.6V19.8391C25.6 20.1911 25.96 20.4791 26.4 20.4791H29.6C30.04 20.4791 30.4 20.1911 30.4 19.8391V15.0031C31.35 14.5591 32 13.7431 32 12.7991C32 11.3871 30.565 10.2391 28.8 10.2391Z" fill="white"/>
</g>
</svg>
