<svg width="21" height="32" viewBox="0 0 21 32" fill="none" xmlns="http://www.w3.org/2000/svg">
<mask id="mask0_446_19134" style="mask-type:luminance" maskUnits="userSpaceOnUse" x="0" y="0" width="21" height="32">
<path d="M0.332031 0H20.332V32H0.332031V0Z" fill="white"/>
</mask>
<g mask="url(#mask0_446_19134)">
<path d="M14.707 0H5.95703C4.92188 0 4.08203 1.34375 4.08203 3V29C4.08203 30.6562 4.92188 32 5.95703 32H14.707C15.7422 32 16.582 30.6562 16.582 29V3C16.582 1.34375 15.7422 0 14.707 0ZM10.332 30C9.64062 30 9.08203 29.1063 9.08203 28C9.08203 26.8937 9.64062 26 10.332 26C11.0234 26 11.582 26.8937 11.582 28C11.582 29.1063 11.0234 30 10.332 30ZM14.707 23.25C14.707 23.6625 14.4961 24 14.2382 24H6.42578C6.16797 24 5.95703 23.6625 5.95703 23.25V3.75C5.95703 3.3375 6.16797 3 6.42578 3H14.2382C14.4961 3 14.707 3.3375 14.707 3.75V23.25Z" fill="white"/>
</g>
</svg>
