<svg width="33" height="32" viewBox="0 0 33 32" fill="none" xmlns="http://www.w3.org/2000/svg">
<mask id="mask0_446_19145" style="mask-type:luminance" maskUnits="userSpaceOnUse" x="0" y="0" width="33" height="32">
<path d="M0.667969 0H32.668V32H0.667969V0Z" fill="white"/>
</mask>
<g mask="url(#mask0_446_19145)">
<mask id="mask1_446_19145" style="mask-type:luminance" maskUnits="userSpaceOnUse" x="0" y="0" width="33" height="32">
<path d="M0.667969 0H32.668V32H0.667969V0Z" fill="white"/>
</mask>
<g mask="url(#mask1_446_19145)">
<path d="M16.668 2C7.82547 2 0.667969 9.156 0.667969 18V21C0.667964 21.3788 0.767526 21.7293 0.966657 22.0515C1.16579 22.3737 1.43475 22.6195 1.77353 22.7889L2.67247 23.2383C2.79816 26.9939 5.88178 30 9.66797 30H11.168C11.9964 30 12.668 29.3284 12.668 28.5V17.5C12.668 16.6716 11.9964 16 11.168 16H9.66797C7.7091 16 5.93853 16.8049 4.66797 18.1017V18C4.66797 11.3832 10.0512 6 16.668 6C23.2848 6 28.668 11.3832 28.668 18V18.1017C27.3974 16.8049 25.6269 16 23.668 16H22.168C21.3396 16 20.668 16.6716 20.668 17.5V28.5C20.668 29.3284 21.3396 30 22.168 30H23.668C27.4542 30 30.5378 26.9939 30.6635 23.2383L31.5624 22.7889C31.9012 22.6195 32.1701 22.3737 32.3693 22.0515C32.5684 21.7293 32.668 21.3788 32.668 21V18C32.668 9.15756 25.512 2 16.668 2Z" fill="white"/>
</g>
</g>
</svg>
