<svg width="24" height="24" viewBox="0 0 24 24" fill="none" xmlns="http://www.w3.org/2000/svg">
<mask id="mask0_850_17423" style="mask-type:luminance" maskUnits="userSpaceOnUse" x="0" y="0" width="24" height="24">
<path d="M0 0H24V24H0V0Z" fill="white"/>
</mask>
<g mask="url(#mask0_850_17423)">
<path fill-rule="evenodd" clip-rule="evenodd" d="M15.9387 7.98426C15.5202 8.16142 15.0823 8.25 14.625 8.25H9.375C8.91776 8.25 8.47986 8.16142 8.0613 7.98426C7.65755 7.81336 7.30007 7.57231 6.98888 7.26112C6.67769 6.94993 6.43664 6.59245 6.26574 6.1887C6.08858 5.77014 6 5.33224 6 4.875C6 4.41776 6.08858 3.97986 6.26574 3.5613C6.43664 3.15755 6.67769 2.80007 6.98888 2.48888C7.30007 2.17769 7.65755 1.93664 8.0613 1.76574C8.47986 1.58858 8.91776 1.5 9.375 1.5C9.83227 1.5 10.2702 1.58858 10.6887 1.76574C11.0924 1.93664 11.4499 2.17769 11.7611 2.48888C11.846 2.57372 11.9256 2.662 12 2.75372C12.0744 2.662 12.154 2.57372 12.2389 2.48888C12.5501 2.17769 12.9076 1.93664 13.3113 1.76574C13.7298 1.58858 14.1677 1.5 14.625 1.5C15.0823 1.5 15.5202 1.58858 15.9387 1.76574C16.3424 1.93664 16.6999 2.17769 17.0111 2.48888C17.3223 2.80007 17.5634 3.15755 17.7343 3.5613C17.9114 3.97986 18 4.41776 18 4.875C18 5.33224 17.9114 5.77014 17.7343 6.1887C17.5634 6.59245 17.3223 6.94993 17.0111 7.26112C16.6999 7.57231 16.3424 7.81336 15.9387 7.98426ZM11.25 4.875C11.25 4.35772 11.0668 3.9159 10.7005 3.54954C10.3341 3.18318 9.89227 3 9.375 3C8.85772 3 8.4159 3.18318 8.04954 3.54954C7.68318 3.9159 7.5 4.35772 7.5 4.875C7.5 5.39228 7.68318 5.8341 8.04954 6.20046C8.4159 6.56682 8.85772 6.75 9.375 6.75H11.25V4.875ZM12.75 6.75V4.875C12.75 4.35772 12.9332 3.9159 13.2995 3.54954C13.6659 3.18318 14.1077 3 14.625 3C15.1423 3 15.5841 3.18318 15.9505 3.54954C16.3168 3.9159 16.5 4.35772 16.5 4.875C16.5 5.39228 16.3168 5.8341 15.9505 6.20046C15.5841 6.56682 15.1423 6.75 14.625 6.75H12.75Z" fill="#EF4444"/>
<path fill-rule="evenodd" clip-rule="evenodd" d="M4.5 6.75H19.5C19.8047 6.75 20.0967 6.80909 20.376 6.92728C20.6451 7.04121 20.8834 7.20186 21.0908 7.40922C21.2981 7.61657 21.4588 7.85484 21.5727 8.12403C21.6909 8.40325 21.75 8.69524 21.75 9V11.25C21.75 11.5547 21.6909 11.8467 21.5727 12.126C21.4588 12.3951 21.2981 12.6334 21.0908 12.8408C20.8834 13.0481 20.6451 13.2088 20.376 13.3227C20.0967 13.4409 19.8047 13.5 19.5 13.5H4.5C4.19523 13.5 3.90324 13.4409 3.62402 13.3227C3.35485 13.2088 3.11658 13.0481 2.90922 12.8408C2.70186 12.6334 2.54121 12.3951 2.42728 12.126C2.30909 11.8467 2.25 11.5547 2.25 11.25V9C2.25 8.69524 2.30909 8.40325 2.42728 8.12403C2.54121 7.85485 2.70186 7.61658 2.90922 7.40922C3.11658 7.20186 3.35485 7.04121 3.62402 6.92728C3.90325 6.80909 4.19524 6.75 4.5 6.75ZM4.5 8.25C4.29317 8.25 4.11647 8.32329 3.96988 8.46988C3.82329 8.61647 3.75 8.79317 3.75 9V11.25C3.75 11.4568 3.82329 11.6335 3.96988 11.7801C4.11647 11.9267 4.29317 12 4.5 12H19.5C19.7068 12 19.8835 11.9267 20.0301 11.7801C20.1767 11.6335 20.25 11.4568 20.25 11.25V9C20.25 8.79317 20.1767 8.61647 20.0301 8.46988C19.8835 8.32329 19.7068 8.25 19.5 8.25H4.5Z" fill="#EF4444"/>
<path fill-rule="evenodd" clip-rule="evenodd" d="M12 6.75C11.5858 6.75 11.25 7.08579 11.25 7.5V21H6.75C6.3362 21 5.98275 20.8534 5.68965 20.5603C5.39655 20.2672 5.25 19.9138 5.25 19.5V12.75C5.25 12.3358 4.91421 12 4.5 12C4.08579 12 3.75 12.3358 3.75 12.75V19.5C3.75 19.9064 3.82875 20.2957 3.98625 20.6678C4.13816 21.0267 4.35241 21.3444 4.62899 21.621C4.90558 21.8976 5.22332 22.1118 5.58221 22.2637C5.95432 22.4212 6.34359 22.5 6.75 22.5H17.25C17.6564 22.5 18.0457 22.4212 18.4178 22.2637C18.7767 22.1118 19.0944 21.8976 19.371 21.621C19.6476 21.3444 19.8618 21.0267 20.0137 20.6678C20.1712 20.2957 20.25 19.9064 20.25 19.5V12.75C20.25 12.3358 19.9142 12 19.5 12C19.0858 12 18.75 12.3358 18.75 12.75V19.5C18.75 19.9138 18.6034 20.2672 18.3103 20.5603C18.0172 20.8534 17.6638 21 17.25 21H12.75V7.5C12.75 7.08579 12.4142 6.75 12 6.75Z" fill="#EF4444"/>
</g>
</svg>
