<svg width="24" height="24" viewBox="0 0 24 24" fill="none" xmlns="http://www.w3.org/2000/svg">
<mask id="mask0_850_17402" style="mask-type:luminance" maskUnits="userSpaceOnUse" x="0" y="0" width="24" height="24">
<path d="M0 0H24V24H0V0Z" fill="white"/>
</mask>
<g mask="url(#mask0_850_17402)">
<path d="M16.6281 7.37399C16.3612 7.10698 16.1537 6.8009 16.0056 6.45573C15.8623 6.12164 15.7837 5.77245 15.7697 5.40817C15.7559 5.04389 15.8077 4.68973 15.9251 4.34568C16.0465 3.99024 16.23 3.66923 16.4758 3.38266C16.3784 3.49689 16.3327 3.62833 16.3389 3.77698C16.3452 3.92562 16.4012 4.05231 16.5068 4.15704L14.4355 2.08347C14.5467 2.19453 14.6806 2.25006 14.8372 2.25006C14.994 2.25006 15.1277 2.19467 15.2385 2.08389L11.9415 5.38096C11.9017 5.42078 11.8729 5.46738 11.8551 5.52076C11.7633 5.79788 11.6141 6.04014 11.4074 6.24754C11.2007 6.45494 10.9585 6.60512 10.6808 6.69808C10.6264 6.71623 10.5791 6.74532 10.5389 6.78537L2.08365 15.2388C2.19455 15.1279 2.25 14.994 2.25 14.8373C2.25 14.6806 2.19461 14.5469 2.08383 14.436L4.1523 16.5045C4.04913 16.4004 3.92322 16.3453 3.77457 16.339C3.62593 16.3328 3.49501 16.378 3.38182 16.4745C3.66707 16.2296 3.98746 16.0463 4.343 15.9247C4.68712 15.8071 5.04139 15.7552 5.40581 15.769C5.77023 15.7828 6.11955 15.8614 6.45378 16.0048C6.79909 16.1529 7.10529 16.3605 7.37236 16.6276C7.63943 16.8947 7.84703 17.2009 7.99515 17.5462C8.13852 17.8804 8.21712 18.2297 8.23094 18.5941C8.24476 18.9586 8.19285 19.3128 8.0752 19.6569C7.95365 20.0124 7.76984 20.3335 7.52375 20.6201C7.6214 20.5056 7.66712 20.374 7.6609 20.2254C7.65468 20.0767 7.59874 19.95 7.49308 19.8453L9.56402 21.9162C9.45311 21.8053 9.3193 21.7499 9.1626 21.7499C9.00589 21.7499 8.87213 21.8053 8.7613 21.9161L17.2174 13.4604C17.2571 13.4207 17.2859 13.3739 17.3038 13.3201C17.3956 13.043 17.5448 12.8008 17.7515 12.5934C17.9582 12.386 18.2004 12.2358 18.4781 12.1429C18.5322 12.1248 18.5791 12.0959 18.6189 12.0561L21.9161 8.75889C21.8053 8.8698 21.7498 9.00361 21.7498 9.16031C21.7498 9.31702 21.8052 9.45078 21.916 9.56161L19.8475 7.49314C19.9507 7.59724 20.0767 7.6524 20.2253 7.65862C20.3739 7.66483 20.5048 7.61967 20.618 7.52312C20.3335 7.76795 20.0136 7.9513 19.6583 8.07319C19.3145 8.19117 18.9605 8.2435 18.5962 8.23017C18.232 8.21684 17.8827 8.13879 17.5483 7.996C17.2029 7.84849 16.8965 7.6415 16.6291 7.37503L17.6879 6.31247C17.9543 6.57786 18.2753 6.71743 18.651 6.73117C19.0268 6.74492 19.358 6.62849 19.6446 6.38188C19.83 6.22373 20.0445 6.14974 20.288 6.15993C20.5315 6.17011 20.7382 6.26096 20.9082 6.43248L22.9769 8.5012C23.1589 8.68323 23.2498 8.90294 23.2498 9.16031C23.2498 9.41768 23.1588 9.63743 22.9768 9.81955L19.6797 13.1167C19.4729 13.3236 19.2311 13.4731 18.9542 13.5653C18.8406 13.6033 18.7649 13.6796 18.7269 13.7943C18.6345 14.0716 18.4849 14.3139 18.278 14.5211L9.82171 22.977C9.63968 23.1589 9.41997 23.2499 9.1626 23.2499C8.90523 23.2499 8.68548 23.1589 8.50336 22.9769L6.43711 20.9106C6.26403 20.7391 6.1724 20.5316 6.16221 20.2881C6.15202 20.0446 6.22656 19.8295 6.38581 19.6428C6.63087 19.3575 6.74627 19.0269 6.73202 18.651C6.71777 18.2751 6.57766 17.9542 6.3117 17.6882C6.04574 17.4223 5.72483 17.2822 5.34897 17.2679C4.97311 17.2536 4.64187 17.3696 4.35525 17.6158C4.16983 17.7739 3.95537 17.8479 3.71188 17.8377C3.46839 17.8276 3.26165 17.7367 3.09164 17.5652L1.02292 15.4965C0.840973 15.3144 0.75 15.0947 0.75 14.8373C0.75 14.58 0.841037 14.3602 1.02311 14.178L9.47934 5.72369C9.68623 5.5172 9.928 5.36786 10.2046 5.27567C10.3182 5.23764 10.394 5.16133 10.4319 5.04674C10.5244 4.76921 10.674 4.52706 10.8808 4.32029L14.1781 1.02298C14.3602 0.841034 14.5799 0.750061 14.8372 0.750061C15.0946 0.750061 15.3145 0.841178 15.4968 1.02341L17.5627 3.09171C17.7359 3.26327 17.8275 3.4708 17.8376 3.71429C17.8478 3.95778 17.7734 4.17276 17.6143 4.35922C17.3695 4.64464 17.2543 4.97523 17.2686 5.35098C17.283 5.72673 17.4231 6.04758 17.6889 6.31351L16.6281 7.37399Z" fill="#4B1BBC"/>
<path fill-rule="evenodd" clip-rule="evenodd" d="M10.4384 5.2789C10.1455 5.57179 10.1455 6.04667 10.4384 6.33956L11.2123 7.11347C11.5051 7.40636 11.98 7.40636 12.2729 7.11347C12.5658 6.82057 12.5658 6.3457 12.2729 6.0528L11.499 5.2789C11.2061 4.98601 10.7312 4.98601 10.4384 5.2789ZM12.7594 7.60086C12.4666 7.89388 12.4668 8.36876 12.7598 8.66152L13.2759 9.17714C13.569 9.4699 14.0438 9.46969 14.3366 9.17666C14.6294 8.88364 14.6291 8.40876 14.3361 8.116L13.82 7.60038C13.527 7.30762 13.0521 7.30783 12.7594 7.60086ZM14.8237 9.66381C14.5307 9.95657 14.5305 10.4314 14.8233 10.7245L15.3389 11.2406C15.6316 11.5336 16.1065 11.5338 16.3996 11.241C16.6926 10.9483 16.6928 10.4734 16.4 10.1804L15.8844 9.6643C15.5917 9.37127 15.1168 9.37106 14.8237 9.66381ZM16.8869 12.7881C16.5941 12.4953 16.5941 12.0204 16.8869 11.7275C17.1798 11.4346 17.6547 11.4346 17.9476 11.7275L18.7215 12.5014C19.0144 12.7943 19.0144 13.2692 18.7215 13.562C18.4286 13.8549 17.9537 13.8549 17.6608 13.562L16.8869 12.7881Z" fill="#4B1BBC"/>
</g>
</svg>
