<svg width="24" height="24" viewBox="0 0 24 24" fill="none" xmlns="http://www.w3.org/2000/svg">
<mask id="mask0_760_2605" style="mask-type:luminance" maskUnits="userSpaceOnUse" x="0" y="0" width="24" height="24">
<path d="M0 0H24V24H0V0Z" fill="white"/>
</mask>
<g mask="url(#mask0_760_2605)">
<path fill-rule="evenodd" clip-rule="evenodd" d="M15.7071 8.29289C15.3166 7.90237 14.6834 7.90237 14.2929 8.29289L8.29289 14.2929C7.90237 14.6834 7.90237 15.3166 8.29289 15.7071C8.68341 16.0976 9.31659 16.0976 9.70711 15.7071L15.7071 9.70711C16.0976 9.31659 16.0976 8.68341 15.7071 8.29289Z" fill="#4B0082"/>
<path d="M9.5 9C9.77614 9 10 9.22386 10 9.5C10 9.77614 9.77614 10 9.5 10C9.22386 10 9 9.77614 9 9.5C9 9.22386 9.22386 9 9.5 9Z" fill="#4B0082"/>
<path d="M9.5 8C9.91421 8 10.2678 8.14645 10.5607 8.43934C10.8536 8.73223 11 9.08579 11 9.5C11 9.91421 10.8536 10.2678 10.5607 10.5607C10.2678 10.8536 9.91421 11 9.5 11C9.08579 11 8.73223 10.8536 8.43934 10.5607C8.14645 10.2678 8 9.91421 8 9.5C8 9.08579 8.14645 8.73223 8.43934 8.43934C8.73223 8.14645 9.08579 8 9.5 8ZM9.5 10C9.63807 10 9.75592 9.95118 9.85355 9.85355C9.95118 9.75592 10 9.63807 10 9.5C10 9.36193 9.95118 9.24408 9.85355 9.14645C9.75592 9.04882 9.63807 9 9.5 9C9.36193 9 9.24408 9.04882 9.14645 9.14645C9.04882 9.24408 9 9.36193 9 9.5C9 9.63807 9.04882 9.75592 9.14645 9.85355C9.24408 9.95118 9.36193 10 9.5 10Z" fill="#4B0082"/>
<path d="M14.5 14C14.7761 14 15 14.2239 15 14.5C15 14.7761 14.7761 15 14.5 15C14.2239 15 14 14.7761 14 14.5C14 14.2239 14.2239 14 14.5 14Z" fill="#4B0082"/>
<path d="M14.5 13C14.9142 13 15.2678 13.1464 15.5607 13.4393C15.8536 13.7322 16 14.0858 16 14.5C16 14.9142 15.8536 15.2678 15.5607 15.5607C15.2678 15.8536 14.9142 16 14.5 16C14.0858 16 13.7322 15.8536 13.4393 15.5607C13.1464 15.2678 13 14.9142 13 14.5C13 14.0858 13.1464 13.7322 13.4393 13.4393C13.7322 13.1464 14.0858 13 14.5 13ZM14.5 15C14.6381 15 14.7559 14.9512 14.8536 14.8536C14.9512 14.7559 15 14.6381 15 14.5C15 14.3619 14.9512 14.2441 14.8536 14.1464C14.7559 14.0488 14.6381 14 14.5 14C14.3619 14 14.2441 14.0488 14.1464 14.1464C14.0488 14.2441 14 14.3619 14 14.5C14 14.6381 14.0488 14.7559 14.1464 14.8536C14.2441 14.9512 14.3619 15 14.5 15Z" fill="#4B0082"/>
<path d="M3.99997 7.19997C3.99997 6.31632 4.31239 5.56207 4.93723 4.93723C5.56207 4.31239 6.31632 3.99997 7.19997 3.99997H8.19997C8.35802 3.99988 8.51026 3.96961 8.65669 3.90914C8.80313 3.84868 8.93252 3.76259 9.04485 3.65088L9.74287 2.95287C10.3671 2.32511 11.1228 2.01123 12.01 2.01123C12.8971 2.01123 13.6535 2.32577 14.279 2.95486L14.977 3.65287C15.0881 3.76325 15.2168 3.84868 15.3632 3.90914C15.5097 3.96961 15.6621 3.99988 15.8205 3.99997L16.8199 3.99997C17.7036 3.99997 18.4579 4.31239 19.0827 4.93723C19.7075 5.56207 20.0199 6.31632 20.0199 7.19997V8.19997C20.0201 8.35802 20.0504 8.51026 20.1108 8.6567C20.1713 8.80313 20.2574 8.93252 20.369 9.04485L21.067 9.74287C21.6948 10.3671 22.0087 11.1228 22.0087 12.01C22.0087 12.8971 21.6942 13.6535 21.0651 14.279L20.367 14.977C20.2567 15.0881 20.1713 15.2168 20.1108 15.3632C20.0504 15.5097 20.0201 15.6621 20.0199 15.8205V16.8199C20.0199 17.7036 19.7075 18.4579 19.0827 19.0827C18.4579 19.7075 17.7036 20.0199 16.8199 20.0199H15.8199C15.6619 20.0201 15.5097 20.0504 15.3632 20.1108C15.2168 20.1713 15.0875 20.2574 14.9751 20.369L14.2771 21.067C13.6529 21.6948 12.8971 22.0087 12.01 22.0087C11.1228 22.0087 10.3664 21.6942 9.74088 21.0651L9.04287 20.367C8.93186 20.2567 8.80313 20.1713 8.6567 20.1108C8.51026 20.0504 8.35783 20.0201 8.1994 20.0199H7.19997C6.31632 20.0199 5.56207 19.7075 4.93723 19.0827C4.31239 18.4579 3.99997 17.7036 3.99997 16.8199V15.8199C3.99988 15.6619 3.96961 15.5097 3.90914 15.3632C3.84868 15.2168 3.76259 15.0875 3.65088 14.9751L2.95287 14.2771C2.32511 13.6529 2.01123 12.8971 2.01123 12.01C2.01123 11.1228 2.32577 10.3664 2.95486 9.74088L3.65287 9.04287C3.76325 8.93186 3.84868 8.80313 3.90914 8.65669C3.96961 8.51026 3.99988 8.35783 3.99997 8.1994V7.19997ZM5.99997 7.19997V8.20054C5.99973 8.62301 5.91899 9.0295 5.75776 9.41999C5.59652 9.81048 5.36629 10.1562 5.06708 10.4571L4.36509 11.1591C4.12918 11.3936 4.01123 11.6773 4.01123 12.01C4.01123 12.3427 4.12985 12.627 4.36708 12.8629L5.06906 13.5648C5.36695 13.8644 5.59652 14.2095 5.75776 14.5999C5.91899 14.9905 5.99973 15.3971 5.99997 15.8199V16.8199C5.99997 17.1513 6.11713 17.4342 6.35144 17.6685C6.58576 17.9028 6.8686 18.0199 7.19997 18.0199H8.20054C8.62301 18.0202 9.0295 18.101 9.41999 18.2622C9.81049 18.4234 10.1562 18.6536 10.4571 18.9528L11.1591 19.6548C11.3936 19.8908 11.6773 20.0087 12.01 20.0087C12.3427 20.0087 12.627 19.8901 12.8629 19.6528L13.5648 18.9509C13.8644 18.653 14.2095 18.4234 14.5999 18.2622C14.9905 18.101 15.3971 18.0202 15.8199 18.0199H16.8199C17.1513 18.0199 17.4342 17.9028 17.6685 17.6685C17.9028 17.4342 18.0199 17.1513 18.0199 16.8199V15.8194C18.0202 15.397 18.101 14.9905 18.2622 14.5999C18.4234 14.2095 18.6536 13.8638 18.9528 13.5628L19.6548 12.8609C19.8908 12.6263 20.0087 12.3427 20.0087 12.01C20.0087 11.6773 19.8901 11.393 19.6528 11.1571L18.9509 10.4551C18.653 10.1555 18.4234 9.81048 18.2622 9.41999C18.101 9.02949 18.0202 8.62282 18.0199 8.19997V7.19997C18.0199 6.8686 17.9028 6.58576 17.6685 6.35144C17.4342 6.11713 17.1513 5.99997 16.8199 5.99997H15.8194C15.397 5.99973 14.9905 5.91899 14.5999 5.75776C14.2095 5.59652 13.8638 5.36629 13.5628 5.06708L12.8609 4.36509C12.6263 4.12918 12.3427 4.01123 12.01 4.01123C11.6773 4.01123 11.393 4.12985 11.1571 4.36708L10.4551 5.06906C10.1555 5.36695 9.81049 5.59652 9.41999 5.75775C9.0295 5.91899 8.62282 5.99973 8.19997 5.99997H7.19997C6.8686 5.99997 6.58576 6.11713 6.35144 6.35144C6.11713 6.58576 5.99997 6.8686 5.99997 7.19997Z" fill="#4B0082"/>
</g>
</svg>
